<?xml version="1.0" encoding="UTF-8" standalone="no"?><!DOCTYPE svg PUBLIC "-//W3C//DTD SVG 1.1//EN" "http://www.w3.org/Graphics/SVG/1.1/DTD/svg11.dtd"><svg width="100%" height="100%" viewBox="0 0 236 24" version="1.1" xmlns="http://www.w3.org/2000/svg" xmlns:xlink="http://www.w3.org/1999/xlink" xml:space="preserve" xmlns:serif="http://www.serif.com/" style="fill-rule:evenodd;clip-rule:evenodd;stroke-linejoin:round;stroke-miterlimit:2;"><g><g transform="matrix(1,0,0,1,-403.990377,-416.614714)"><g transform="matrix(28.469238,0,0,28.469238,472.476467,437.96475)"><path d="M0.587,-0.3c0,0.046 -0.007,0.087 -0.022,0.124c-0.015,0.037 -0.035,0.069 -0.062,0.095c-0.027,0.026 -0.059,0.046 -0.096,0.06c-0.038,0.014 -0.079,0.021 -0.124,0.021l-0.2,-0l-0,-0.6l0.2,0c0.045,0 0.087,0.007 0.124,0.021c0.038,0.014 0.07,0.034 0.096,0.06c0.027,0.026 0.047,0.057 0.062,0.095c0.015,0.037 0.022,0.078 0.022,0.124Zm-0.435,-0.235l-0,0.47l0.126,0c0.034,0 0.065,-0.005 0.094,-0.016c0.029,-0.011 0.054,-0.026 0.076,-0.046c0.021,-0.02 0.038,-0.045 0.05,-0.074c0.012,-0.029 0.018,-0.062 0.018,-0.099c0,-0.037 -0.006,-0.071 -0.018,-0.1c-0.012,-0.029 -0.029,-0.053 -0.05,-0.074c-0.021,-0.02 -0.046,-0.035 -0.076,-0.046c-0.029,-0.011 -0.06,-0.016 -0.094,-0.016l-0.126,0Z" style="fill:#fff;fill-rule:nonzero;"/></g><g transform="matrix(28.469238,0,0,28.469238,489.871171,437.96475)"><path d="M0.586,-0l-0.072,-0l-0.057,-0.133l-0.32,0l-0.056,0.133l-0.072,-0l0.257,-0.6l0.063,0l0.257,0.6Zm-0.421,-0.198l0.265,0l-0.132,-0.312l-0.133,0.312Z" style="fill:#fff;fill-rule:nonzero;"/></g><g transform="matrix(28.469238,0,0,28.469238,506.810367,437.96475)"><path d="M0.317,-0.6c0.072,0 0.128,0.017 0.168,0.051c0.04,0.034 0.061,0.084 0.061,0.149c0,0.05 -0.012,0.091 -0.037,0.122c-0.025,0.031 -0.058,0.053 -0.099,0.066l0,0.003l0.149,0.192l0,0.017l-0.073,-0l-0.155,-0.199l-0.179,0l0,0.199l-0.07,-0l0,-0.6l0.235,0Zm0.157,0.202c0,-0.047 -0.014,-0.081 -0.043,-0.104c-0.029,-0.022 -0.067,-0.033 -0.115,-0.033l-0.164,0l0,0.271l0.172,0c0.044,0 0.08,-0.011 0.108,-0.032c0.028,-0.022 0.042,-0.056 0.042,-0.102Z" style="fill:#fff;fill-rule:nonzero;"/></g><g transform="matrix(28.469238,0,0,28.469238,523.834972,437.96475)"><rect x="0.082" y="-0.6" width="0.07" height="0.6" style="fill:#fff;fill-rule:nonzero;"/></g><g transform="matrix(28.469238,0,0,28.469238,530.496773,437.96475)"><path d="M0.317,-0.6c0.072,0 0.128,0.017 0.168,0.051c0.04,0.034 0.061,0.084 0.061,0.149c0,0.05 -0.012,0.091 -0.037,0.122c-0.025,0.031 -0.058,0.053 -0.099,0.066l0,0.003l0.149,0.192l0,0.017l-0.073,-0l-0.155,-0.199l-0.179,0l0,0.199l-0.07,-0l0,-0.6l0.235,0Zm0.157,0.202c0,-0.047 -0.014,-0.081 -0.043,-0.104c-0.029,-0.022 -0.067,-0.033 -0.115,-0.033l-0.164,0l0,0.271l0.172,0c0.044,0 0.08,-0.011 0.108,-0.032c0.028,-0.022 0.042,-0.056 0.042,-0.102Z" style="fill:#fff;fill-rule:nonzero;"/></g><g transform="matrix(28.469238,0,0,28.469238,547.521377,437.96475)"><path d="M0.338,0.014c-0.045,0 -0.085,-0.008 -0.122,-0.024c-0.037,-0.016 -0.068,-0.038 -0.093,-0.066c-0.026,-0.028 -0.045,-0.061 -0.059,-0.099c-0.014,-0.038 -0.021,-0.079 -0.021,-0.123c0,-0.044 0.007,-0.085 0.021,-0.123c0.014,-0.038 0.034,-0.072 0.059,-0.1c0.026,-0.028 0.057,-0.05 0.093,-0.066c0.037,-0.016 0.077,-0.024 0.122,-0.024c0.045,0 0.086,0.008 0.123,0.024c0.037,0.016 0.068,0.038 0.093,0.066c0.026,0.028 0.045,0.062 0.059,0.1c0.014,0.038 0.021,0.079 0.021,0.123c0,0.044 -0.007,0.085 -0.021,0.123c-0.014,0.038 -0.034,0.071 -0.059,0.099c-0.026,0.028 -0.057,0.05 -0.093,0.066c-0.037,0.016 -0.078,0.024 -0.123,0.024Zm0,-0.067c0.035,0 0.066,-0.006 0.094,-0.019c0.028,-0.013 0.052,-0.031 0.071,-0.053c0.019,-0.022 0.034,-0.048 0.045,-0.078c0.011,-0.03 0.016,-0.061 0.016,-0.095c0,-0.034 -0.005,-0.066 -0.016,-0.096c-0.011,-0.03 -0.026,-0.056 -0.045,-0.079c-0.019,-0.023 -0.043,-0.04 -0.071,-0.053c-0.028,-0.013 -0.059,-0.02 -0.094,-0.02c-0.035,0 -0.066,0.006 -0.094,0.02c-0.028,0.013 -0.051,0.031 -0.07,0.053c-0.019,0.023 -0.034,0.049 -0.045,0.079c-0.01,0.03 -0.015,0.062 -0.015,0.096c0,0.034 0.005,0.066 0.015,0.095c0.01,0.03 0.025,0.056 0.045,0.078c0.019,0.022 0.043,0.04 0.07,0.053c0.028,0.013 0.059,0.019 0.094,0.019Z" style="fill:#fff;fill-rule:nonzero;"/></g><g transform="matrix(28.469238,0,0,28.469238,566.795051,437.96475)"><path d="M0.525,-0.331l-0.129,0.172l-0.061,0l-0.13,-0.173l0,0.332l-0.144,-0l0.001,-0.6l0.117,0l0.186,0.257l0.186,-0.257l0.117,0l0.001,0.6l-0.144,-0l0,-0.331Z" style="fill:#fff;fill-rule:nonzero;"/></g><g transform="matrix(28.469238,0,0,28.469238,587.577595,437.96475)"><path d="M0.335,0.014c-0.045,0 -0.087,-0.008 -0.125,-0.025c-0.038,-0.017 -0.07,-0.039 -0.097,-0.068c-0.027,-0.028 -0.048,-0.062 -0.063,-0.1c-0.015,-0.038 -0.023,-0.079 -0.023,-0.121c0,-0.043 0.008,-0.084 0.023,-0.121c0.015,-0.038 0.036,-0.071 0.063,-0.1c0.027,-0.029 0.059,-0.051 0.097,-0.068c0.038,-0.016 0.079,-0.024 0.125,-0.024c0.046,0 0.088,0.008 0.126,0.024c0.038,0.016 0.07,0.039 0.098,0.068c0.027,0.029 0.048,0.062 0.064,0.1c0.015,0.038 0.022,0.078 0.022,0.121c0,0.043 -0.008,0.083 -0.022,0.121c-0.015,0.038 -0.036,0.072 -0.064,0.1c-0.027,0.028 -0.06,0.051 -0.098,0.068c-0.038,0.017 -0.08,0.025 -0.126,0.025Zm0,-0.141c0.022,0 0.043,-0.004 0.062,-0.013c0.019,-0.008 0.036,-0.02 0.05,-0.035c0.014,-0.015 0.026,-0.033 0.034,-0.054c0.008,-0.021 0.013,-0.045 0.013,-0.071c0,-0.026 -0.004,-0.05 -0.013,-0.071c-0.008,-0.021 -0.02,-0.04 -0.034,-0.054c-0.014,-0.015 -0.031,-0.027 -0.05,-0.035c-0.019,-0.008 -0.04,-0.013 -0.062,-0.013c-0.022,0 -0.043,0.004 -0.061,0.013c-0.019,0.008 -0.036,0.02 -0.05,0.035c-0.014,0.015 -0.025,0.033 -0.034,0.054c-0.008,0.021 -0.012,0.045 -0.013,0.071c0,0.026 0.004,0.05 0.013,0.071c0.008,0.021 0.019,0.04 0.034,0.054c0.014,0.015 0.03,0.027 0.05,0.035c0.019,0.008 0.039,0.013 0.061,0.013Z" style="fill:#fff;fill-rule:nonzero;"/></g><g transform="matrix(28.469238,0,0,28.469238,606.708923,437.96475)"><path d="M0.608,-0.3c0,0.043 -0.007,0.082 -0.022,0.119c-0.015,0.037 -0.036,0.068 -0.063,0.095c-0.027,0.027 -0.061,0.048 -0.1,0.063c-0.039,0.015 -0.083,0.023 -0.131,0.023l-0.231,-0l0,-0.6l0.231,0c0.048,0 0.092,0.008 0.131,0.022c0.039,0.015 0.072,0.036 0.1,0.063c0.027,0.027 0.048,0.059 0.063,0.095c0.015,0.036 0.022,0.076 0.022,0.119Zm-0.401,-0.175l0,0.35l0.075,0c0.024,0 0.047,-0.004 0.068,-0.012c0.021,-0.008 0.04,-0.019 0.056,-0.035c0.016,-0.015 0.029,-0.033 0.038,-0.055c0.009,-0.022 0.014,-0.046 0.014,-0.073c0,-0.029 -0.005,-0.055 -0.014,-0.077c-0.009,-0.022 -0.022,-0.04 -0.038,-0.054c-0.016,-0.015 -0.035,-0.026 -0.056,-0.033c-0.021,-0.007 -0.044,-0.011 -0.068,-0.011l-0.075,0Z" style="fill:#fff;fill-rule:nonzero;"/></g><g transform="matrix(28.469238,0,0,28.469238,624.843827,437.96475)"><path d="M0.451,-0.247l-0.244,0l0,0.122l0.291,0l0,0.125l-0.436,-0l0,-0.6l0.436,0l0,0.125l-0.291,0l0,0.115l0.244,0l0,0.113Z" style="fill:#fff;fill-rule:nonzero;"/></g></g><path d="M0,23.728l61.11,0c0,0 -0.466,-1.009 -1.141,-2.471c-2.907,-6.294 -9.858,-9.654 -16.596,-8.024c-16.127,3.902 -43.373,10.495 -43.373,10.495Z" style="fill:#fff;"/><path d="M34.422,2.976c-0.089,0.044 -0.178,0.089 -0.267,0.135l-26.126,13.539l11.013,-12.938c1.92,-2.256 4.701,-3.601 7.662,-3.706c2.873,-0.102 5.66,0.973 7.719,2.97Z" style="fill:#fff;"/><path d="M18.102,1.382c-0.045,0.051 -0.09,0.102 -0.135,0.153l-13.164,15.173l4.231,-10.574c0.738,-1.844 2.156,-3.403 3.909,-4.297c1.701,-0.867 3.564,-1.03 5.159,-0.456Z" style="fill:#fff;"/><path d="M47.943,10.86c-1.658,-0.116 -3.356,0.017 -5.042,0.425l-37.636,9.107l29.834,-15.46c5.554,-2.878 12.367,-1.428 16.268,3.462l1.085,1.36l-4.509,1.107Z" style="fill:#fff;"/></g></svg>